<svg data-v-0dd9719b="" version="1.0" xmlns="http://www.w3.org/2000/svg" xmlns:xlink="http://www.w3.org/1999/xlink" width="100%" height="100%" viewBox="0 0 340.000000 250.000000" preserveAspectRatio="xMidYMid meet" color-interpolation-filters="sRGB" style="margin: auto;"> <rect data-v-0dd9719b="" x="0" y="0" width="100%" height="100%" fill="#fff" fill-opacity="1" class="background"></rect> <rect data-v-0dd9719b="" x="0" y="0" width="100%" height="100%" fill="url(#watermark)" fill-opacity="1" class="watermarklayer"></rect> <g data-v-0dd9719b="" fill="#333333" class="icon-text-wrapper icon-svg-group iconsvg" transform="translate(72.37999725341797,98.56362342834473)"><g class="iconsvg-imagesvg" transform="translate(0,0)"><g><rect fill="#333333" fill-opacity="0" stroke-width="2" x="0" y="0" width="60" height="52.87275290800141" class="image-rect"></rect> <svg x="0" y="0" width="60" height="52.87275290800141" filtersec="colorsb186136009" class="image-svg-svg primary" style="overflow: visible;"><svg xmlns="http://www.w3.org/2000/svg" viewBox="0 0 113.4800033569336 100"><g><g><path fill="#02035e" d="M84.94 62.54l-28.2-12.38-28.19 12.38L0 75.08 56.74 100l56.74-24.92-28.54-12.54z"></path><path fill="#00b0d8" opacity=".8" d="M84.94 37.46l-28.2-12.38-28.19 12.38L0 50l28.55 12.54 28.19 12.38 28.2-12.38L113.48 50 84.94 37.46z"></path><path fill="#00b0d8" opacity=".5" d="M56.74 0L0 24.92l28.55 12.54 28.19 12.38 28.2-12.38 28.54-12.54L56.74 0z"></path></g></g></svg></svg> <!----></g></g> <g transform="translate(67,0.03230857849121094)"><g data-gra="path-name" fill-rule="" class="tp-name iconsvg-namesvg" transform="translate(0,0)"><g transform="scale(1)"><g><path d="M29.52-25.57L26.1-25.57 24.43-31.67 27.9-31.67 29.52-25.57ZM3.48-29.67L3.48-26.67 17-26.67 17-29.67 3.48-29.67ZM19.38-1.86L19.38 1.14Q16.95 2.19 12.31 3.14 7.67 4.1 1.33 4.57L1.33 4.57 1.33 1.57 3.29 1.43 3.29-14.76 6.81-14.76 6.81 1 10.1 0.48 10.1-18 13.62-18 13.62-12 19.24-12 19.24-9 13.62-9 13.62-0.29Q16.57-0.95 19.38-1.86L19.38-1.86ZM25.48 3.05Q21.43-1.33 19.48-19.81L19.48-19.81 1.33-19.81 1.33-22.81 19.19-22.81Q18.67-28.62 18.43-33.33L18.43-33.33 21.9-33.33Q22.19-28.43 22.71-22.81L22.71-22.81 30.86-22.81 30.86-19.81 23.05-19.81Q24.81-5.05 27.67-0.24L27.67-0.24Q28.81 1.76 30.24 1.76L30.24 1.76 31.14 1.76 30.52 4.76 29.81 4.76Q28.62 4.71 27.43 4.31 26.24 3.9 25.48 3.05L25.48 3.05ZM37.33-12.1L40.9-12.1Q40.57-7.52 39.64-3.07 38.71 1.38 37.57 4.76L37.57 4.76 33.81 4.76Q35.1 0.76 36.1-3.79 37.1-8.33 37.33-12.1L37.33-12.1ZM38.33-33.33L40.86-25.57 37.29-25.57 34.71-33.33 38.33-33.33ZM37.29-15.14L34.71-22.9 38.33-22.9 40.86-15.14 37.29-15.14ZM54.9-6.19Q57.14-3.05 59.67-0.17 62.19 2.71 64.33 4.76L64.33 4.76 59.9 4.76Q56.24 1.38 52.76-3.29L52.76-3.29Q49.05 1.33 45.29 4.76L45.29 4.76 40.9 4.76Q43.1 2.71 45.71-0.19 48.33-3.1 50.67-6.19L50.67-6.19Q44.24-16.05 44.24-24.67L44.24-24.67 44.24-26.33 47.62-26.33 47.62-25.1Q47.62-17.95 52.86-9.29L52.86-9.29Q58.81-18.24 58.81-25.1L58.81-25.1 58.81-29.05 43.33-29.05 43.33-32.05 58.81-32.05 62.19-32.05 62.19-29.05 62.19-24.67Q62.19-20.14 60.17-15.4 58.14-10.67 54.9-6.19L54.9-6.19ZM83.52-33.33L87.05-33.33 87.05-26 95.43-26 95.43-23.05 87.05-23.05 87.05-19.48 89.38-19.48 92.19-19.48 92.76-19.48Q93.14-13.95 94.24-7.57 95.33-1.19 96.67 4.29L96.67 4.29 92.86 4.29Q91.43-1.1 90.64-6.76 89.86-12.43 89.57-16.86L89.57-16.86 87.05-16.86 87.05 4.76 83.52 4.76 83.52-23.05 75.14-23.05 75.14-26 83.52-26 83.52-33.33ZM77.71 4.29L73.9 4.29Q75.14-0.19 76.24-6.45 77.33-12.71 77.81-19.48L77.81-19.48 81.19-19.48Q80.9-14 80.05-7.62 79.19-1.24 77.71 4.29L77.71 4.29ZM67 4.76Q68.29 0.76 69.29-3.79 70.29-8.33 70.52-12.1L70.52-12.1 74.1-12.1Q73.81-7.52 72.86-3.07 71.9 1.38 70.76 4.76L70.76 4.76 67 4.76ZM67.9-33.33L71.52-33.33 74.1-25.57 70.48-25.57 67.9-33.33ZM71.52-22.9L74.1-15.14 70.48-15.14 67.9-22.9 71.52-22.9ZM110.1-5.95L110.1-3Q108.71-1.81 105.93-0.64 103.14 0.52 99.33 1.33L99.33 1.33 99.33-1.67Q100.95-2 102.95-2.62L102.95-2.62 102.95-14.9 99.71-14.9 99.71-17.9 102.95-17.9 102.95-28.76 99.38-28.76 99.38-31.71 110.1-31.71 110.1-28.76 106.52-28.76 106.52-17.9 109.71-17.9 109.71-14.9 106.52-14.9 106.52-4Q108.81-5.1 110.1-5.95L110.1-5.95ZM110.67-32.48L114.05-32.48 114.05-25.43Q114.05-25.19 114.24-25 114.43-24.81 114.67-24.81L114.67-24.81 118.05-24.81 118.05-33.33 121.62-33.33 121.62-24.81 125.62-24.81 125.62-32.48 129-32.48 129-21.81 113.14-21.81Q112.1-21.81 111.38-22.52 110.67-23.24 110.67-24.29L110.67-24.29 110.67-32.48ZM129.57-17.67L118.76-17.67 117.81-15.33 126.14-15.33Q127.76-15.33 128.6-14.52 129.43-13.71 129.52-12.57L129.52-12.57 129.52 1.05Q129.52 2.9 128.55 3.79 127.57 4.67 126.14 4.67L126.14 4.67 125.52 4.67 125.19 1.71Q125.57 1.71 125.86 1.55 126.14 1.38 126.14 1.05L126.14 1.05 126.14-10.71Q126.19-11.43 125.83-11.9 125.48-12.38 124.62-12.38L124.62-12.38 124.38-12.38 124.38 4.33 121.05 4.33 121.05-12.38 119.29-12.38 119.29 4.33 115.95 4.33 115.95-12.38 114.19-12.38 114.19 4.67 110.86 4.67 110.86-15.33 112.19-15.33 114.19-15.33 114.24-15.33 115.19-17.67 110.33-17.67 110.33-20.62 129.57-20.62 129.57-17.67Z" transform="translate(-1.3300000429153442, 33.33000183105469)"></path></g> <!----> <!----> <!----> <!----> <!----> <!----> <!----></g></g> <g data-gra="path-slogan" fill-rule="" class="tp-slogan iconsvg-slogansvg" fill="#333333" transform="translate(20.95000457763672,44.090003967285156)"><!----> <!----> <g transform="scale(1, 1)"><g transform="scale(1)"><path d="M5.67-7.13L5.63-7.13L3.66 0L2.44 0L0.19-8.58L1.41-8.58L3.05-1.59L3.09-1.59L5.02-8.58L6.28-8.58L8.20-1.59L8.25-1.59L9.84-8.58L11.11-8.58L8.86 0L7.64 0L5.67-7.13ZM17.86-3.19L17.86-8.58L19.03-8.58L19.03-3.05Q18.89 0.05 15.52 0.14L15.52 0.14Q12.38 0.05 12.23-2.86L12.23-2.86L12.23-8.58L13.41-8.58L13.41-3.19Q13.45-0.84 15.56-0.80L15.56-0.80Q17.86-0.84 17.86-3.19L17.86-3.19ZM21.98-5.06L26.48-5.06L26.48-8.58L27.66-8.58L27.66 0L26.48 0L26.48-3.98L21.98-3.98L21.98 0L20.81 0L20.81-8.58L21.98-8.58L21.98-5.06ZM35.11 0L34.27-2.48L30.80-2.48L29.91 0L28.73 0L31.97-8.58L33.28-8.58L36.38 0L35.11 0ZM32.53-7.31L31.17-3.52L33.84-3.52L32.58-7.31L32.53-7.31ZM38.81-8.58L43.13-1.64L43.13-8.58L44.25-8.58L44.25 0L42.94 0L38.58-6.94L38.53-6.94L38.53 0L37.41 0L37.41-8.58L38.81-8.58ZM57.61-8.58L57.61 0L56.48 0L56.48-5.06Q56.48-5.77 56.48-7.22L56.48-7.22L54.05 0L52.88 0L50.48-7.22L50.44-7.22Q50.44-6.70 50.48-5.67L50.48-5.67Q50.48-5.16 50.48-5.06L50.48-5.06L50.48 0L49.31 0L49.31-8.58L51-8.58L53.48-1.31L55.92-8.58L57.61-8.58ZM64.97-3.19L64.97-8.58L66.14-8.58L66.14-3.05Q66 0.05 62.63 0.14L62.63 0.14Q59.48 0.05 59.34-2.86L59.34-2.86L59.34-8.58L60.52-8.58L60.52-3.19Q60.56-0.84 62.67-0.80L62.67-0.80Q64.97-0.84 64.97-3.19L64.97-3.19ZM72.05-3.70L69.23-3.70L69.23 0L68.06 0L68.06-8.58L72.05-8.58Q74.91-8.58 74.91-6.28L74.91-6.28Q74.91-4.88 73.69-4.22L73.69-4.22Q74.72-3.94 74.72-2.58L74.72-2.58L74.81-1.03Q74.77-0.38 75.23-0.19L75.23-0.19L75.23 0L73.78 0Q73.64-0.61 73.59-2.16L73.59-2.16Q73.64-3.70 72.05-3.70L72.05-3.70ZM72.14-7.64L69.23-7.64L69.23-4.69L71.95-4.69Q73.69-4.69 73.69-6.19L73.69-6.19Q73.69-7.64 72.14-7.64L72.14-7.64ZM82.22-3.19L82.22-8.58L83.39-8.58L83.39-3.05Q83.25 0.05 79.88 0.14L79.88 0.14Q76.73 0.05 76.59-2.86L76.59-2.86L76.59-8.58L77.77-8.58L77.77-3.19Q77.81-0.84 79.92-0.80L79.92-0.80Q82.22-0.84 82.22-3.19L82.22-3.19ZM85.36-8.58L86.53-8.58L86.53 0L85.36 0L85.36-8.58Z" transform="translate(-0.1875, 8.578125)"></path></g></g></g></g></g><defs v-gra="od"></defs></svg>